<svg width="2846" height="493" viewBox="0 0 2846 493" fill="none" xmlns="http://www.w3.org/2000/svg">
<path d="M224.735 23.7861H2702.73C2774.2 23.7861 2819.51 80.3288 2803.93 150.078L2751.39 385.281C2739.42 438.86 2685.21 482.294 2630.31 482.294H142.31C70.8424 482.294 25.537 425.751 41.118 356.002L91.479 130.559C104.652 71.5899 164.313 23.7861 224.735 23.7861Z" fill="black" stroke="black" stroke-width="21.1912"/>
<path d="M1681.82 429.738H139.84C106.307 429.738 85.0487 403.207 92.3595 370.48L144.806 135.703C152.116 102.976 185.228 76.4453 218.761 76.4453H2706.31C2739.85 76.4453 2761.11 102.983 2753.79 135.715L2701.27 370.615C2693.95 403.337 2660.8 429.861 2627.27 429.861C2557.07 429.861 2536.51 429.861 2536.51 429.861" stroke="#E93024" stroke-width="42.5027"/>
<mask id="mask0_57_38" style="mask-type:alpha" maskUnits="userSpaceOnUse" x="218" y="167" width="2423" height="166">
<path d="M297.002 266.744L285.343 332.865H218.202L247.35 167.562H415.203L386.056 332.865H318.914L330.573 266.744H297.002ZM308.661 200.622L302.832 233.683H336.403L342.232 200.622H308.661ZM445.482 167.562H613.336L607.506 200.622H506.794L489.306 299.804H522.876L534.535 233.683H601.677L584.188 332.865H416.335L445.482 167.562ZM614.467 332.865L643.615 167.562H811.468L805.639 200.622H704.927L699.097 233.683H766.239L760.409 266.744H693.268L687.438 299.804H788.15L782.321 332.865H614.467ZM919.142 299.804L924.971 266.744H891.401L879.742 332.865H812.6L841.748 167.562H875.318L869.489 200.622H903.06L897.23 233.683H930.801L942.46 167.562H1009.6L980.454 332.865H946.883L952.712 299.804H919.142ZM1034.05 200.622L1039.88 167.562H1174.16L1168.33 200.622H1134.76L1111.44 332.865H1044.3L1067.62 200.622H1034.05ZM1171.8 272.695L1179.79 227.401H1281.85L1273.86 272.695H1171.8ZM1401.75 299.804L1407.58 266.744H1374.01L1362.35 332.865H1295.21L1324.35 167.562H1357.92L1352.09 200.622H1385.66L1379.84 233.683H1413.41L1425.06 167.562H1492.21L1463.06 332.865H1429.49L1435.32 299.804H1401.75ZM1493.34 332.865L1522.49 167.562H1690.34L1684.51 200.622H1583.8L1577.97 233.683H1645.11L1639.28 266.744H1572.14L1566.31 299.804H1667.02L1661.19 332.865H1493.34ZM1714.79 200.622L1720.62 167.562H1854.9L1849.07 200.622H1815.5L1792.18 332.865H1725.04L1748.36 200.622H1714.79ZM1950.03 332.865L1955.86 299.804H1922.29L1916.46 332.865H1849.32L1878.47 167.562H1945.61L1928.12 266.744H1961.69L1979.18 167.562H2046.32L2017.17 332.865H1950.03ZM2047.45 332.865L2076.6 167.562H2244.45L2215.3 332.865H2047.45ZM2137.91 200.622L2120.42 299.804H2153.99L2171.48 200.622H2137.91ZM2346.3 332.865L2357.95 266.744H2324.38L2312.73 332.865H2245.58L2274.73 167.562H2409.01L2403.18 200.622H2436.76L2430.93 233.683H2397.36L2391.53 266.744H2425.1L2413.44 332.865H2346.3ZM2336.04 200.622L2330.21 233.683H2363.78L2369.61 200.622H2336.04ZM2561.92 233.683L2573.58 167.562H2640.72L2629.06 233.683H2595.49L2589.66 266.744H2623.23L2611.57 332.865H2544.43L2556.09 266.744H2522.52L2510.86 332.865H2443.72L2472.86 167.562H2540.01L2528.35 233.683H2561.92Z" fill="#E93024"/>
</mask>
<g mask="url(#mask0_57_38)">
<rect width="3076.99" height="412.9" transform="matrix(1 0 -0.173648 0.984808 -110.353 98.375)" fill="#ED2D28"/>
<path d="M-2.81738 214.955C1105.48 214.955 2213.77 214.955 3355.64 214.955C3355.64 263.767 3355.64 312.58 3355.64 362.871C2247.35 362.871 1139.06 362.871 -2.81738 362.871C-2.81738 314.059 -2.81738 265.247 -2.81738 214.955Z" fill="#EE342E"/>
<path d="M-2.81738 214.955C1105.48 214.955 2213.77 214.955 3355.64 214.955C3355.64 229.599 3355.64 244.242 3355.64 259.33C2247.35 259.33 1139.06 259.33 -2.81738 259.33C-2.81738 244.686 -2.81738 230.043 -2.81738 214.955Z" fill="#EE342E"/>
<path d="M-2.81738 331.096C1105.48 331.096 2213.77 331.096 3355.64 331.096C3355.64 341.581 3355.64 352.067 3355.64 362.87C2247.35 362.87 1139.06 362.87 -2.81738 362.87C-2.81738 352.385 -2.81738 341.899 -2.81738 331.096Z" fill="#EE342E"/>
<path d="M-2.81738 259.332C1105.48 259.332 2213.77 259.332 3355.64 259.332C3355.64 269.275 3355.64 279.219 3355.64 289.463C2247.35 289.463 1139.06 289.463 -2.81738 289.463C-2.81738 279.52 -2.81738 269.577 -2.81738 259.332Z" fill="#EE342E"/>
<path d="M-2.81738 245.086C1105.48 245.086 2213.77 245.086 3355.64 245.086C3355.64 249.786 3355.64 254.487 3355.64 259.33C2247.35 259.33 1139.06 259.33 -2.81738 259.33C-2.81738 254.629 -2.81738 249.929 -2.81738 245.086Z" fill="#EE342E"/>
<path d="M-2.81738 319.398C1105.48 319.398 2213.77 319.398 3355.64 319.398C3355.64 323.737 3355.64 328.076 3355.64 332.547C2247.35 332.547 1139.06 332.547 -2.81738 332.547C-2.81738 328.208 -2.81738 323.869 -2.81738 319.398Z" fill="#EE342E"/>
<path d="M-16.0146 331.096C1092.27 331.096 2200.58 331.096 3342.45 331.096C3342.45 334.566 3342.45 338.036 3342.45 341.611C2234.16 341.611 1125.86 341.611 -16.0146 341.611C-16.0146 338.141 -16.0146 334.671 -16.0146 331.096Z" fill="white"/>
<path d="M-2.81738 308.086C1105.48 308.086 2213.77 308.086 3355.64 308.086C3355.64 311.34 3355.64 314.594 3355.64 317.947C2247.35 317.947 1139.06 317.947 -2.81738 317.947C-2.81738 314.693 -2.81738 311.439 -2.81738 308.086Z" fill="white"/>
<path d="M-2.81738 281.242C1105.48 281.242 2213.77 281.242 3355.64 281.242C3355.64 283.954 3355.64 286.666 3355.64 289.46C2247.35 289.46 1139.06 289.46 -2.81738 289.46C-2.81738 286.748 -2.81738 284.036 -2.81738 281.242Z" fill="white"/>
<path d="M-2.81738 259.332C1105.48 259.332 2213.77 259.332 3355.64 259.332C3355.64 261.682 3355.64 264.032 3355.64 266.454C2247.35 266.454 1139.06 266.454 -2.81738 266.454C-2.81738 264.104 -2.81738 261.753 -2.81738 259.332Z" fill="white"/>
<path d="M-3.78711 240.102C1104.51 240.102 2212.8 240.102 3354.67 240.102C3354.67 242.09 3354.67 244.079 3354.67 246.128C2246.38 246.128 1138.09 246.128 -3.78711 246.128C-3.78711 244.139 -3.78711 242.15 -3.78711 240.102Z" fill="white"/>
<path d="M-2.81738 214.955C1105.48 214.955 2213.77 214.955 3355.64 214.955C3355.64 216.763 3355.64 218.571 3355.64 220.433C2247.35 220.433 1139.06 220.433 -2.81738 220.433C-2.81738 218.626 -2.81738 216.818 -2.81738 214.955Z" fill="#EE342E"/>
<path d="M-2.81738 220.436C1105.48 220.436 2213.77 220.436 3355.64 220.436C3355.64 221.701 3355.64 222.967 3355.64 224.27C2247.35 224.27 1139.06 224.27 -2.81738 224.27C-2.81738 223.005 -2.81738 221.739 -2.81738 220.436Z" fill="white"/>
<path d="M-2.81738 278.504C1105.48 278.504 2213.77 278.504 3355.64 278.504C3355.64 279.408 3355.64 280.312 3355.64 281.243C2247.35 281.243 1139.06 281.243 -2.81738 281.243C-2.81738 280.339 -2.81738 279.435 -2.81738 278.504Z" fill="#EE342E"/>
<path d="M-2.81738 305.895C1105.48 305.895 2213.77 305.895 3355.64 305.895C3355.64 306.618 3355.64 307.341 3355.64 308.086C2247.35 308.086 1139.06 308.086 -2.81738 308.086C-2.81738 307.363 -2.81738 306.64 -2.81738 305.895Z" fill="#EE342E"/>
<path d="M-2.81738 289.463C1105.48 289.463 2213.77 289.463 3355.64 289.463C3355.64 290.186 3355.64 290.909 3355.64 291.654C2247.35 291.654 1139.06 291.654 -2.81738 291.654C-2.81738 290.931 -2.81738 290.208 -2.81738 289.463Z" fill="#EE342E"/>
<path d="M-2.81738 245.086C1105.48 245.086 2213.77 245.086 3355.64 245.086C3355.64 245.809 3355.64 246.532 3355.64 247.277C2247.35 247.277 1139.06 247.277 -2.81738 247.277C-2.81738 246.554 -2.81738 245.831 -2.81738 245.086Z" fill="#EE342E"/>
</g>
<path d="M1724.64 450.309L1731.83 409.511H1749.44C1753.87 409.511 1757.01 409.882 1758.88 410.624C1760.77 411.348 1762.15 412.647 1763.02 414.52C1763.9 416.394 1764.12 418.537 1763.7 420.949C1763.16 424.01 1761.8 426.543 1759.62 428.546C1757.44 430.531 1754.49 431.784 1750.76 432.303C1752.39 433.342 1753.67 434.483 1754.62 435.726C1755.59 436.969 1756.79 439.177 1758.23 442.349L1761.89 450.309H1751.88L1747.4 441.431C1745.81 438.259 1744.69 436.264 1744.05 435.448C1743.4 434.613 1742.66 434.047 1741.83 433.75C1741 433.435 1739.63 433.277 1737.7 433.277H1736.01L1733.01 450.309H1724.64ZM1737.16 426.765H1743.35C1747.36 426.765 1749.89 426.598 1750.95 426.264C1752.01 425.93 1752.89 425.355 1753.6 424.539C1754.31 423.723 1754.77 422.702 1754.99 421.478C1755.23 420.105 1755.05 419.001 1754.44 418.166C1753.86 417.313 1752.91 416.775 1751.59 416.552C1750.93 416.459 1748.9 416.413 1745.51 416.413H1738.98L1737.16 426.765ZM1768.29 430.16C1769.03 426.005 1770.27 422.517 1772.03 419.697C1773.34 417.619 1774.95 415.754 1776.86 414.103C1778.79 412.452 1780.8 411.227 1782.88 410.43C1785.65 409.353 1788.72 408.815 1792.09 408.815C1798.19 408.815 1802.75 410.68 1805.74 414.409C1808.76 418.138 1809.68 423.324 1808.51 429.966C1807.35 436.552 1804.62 441.709 1800.33 445.438C1796.04 449.149 1790.85 451.004 1784.77 451.004C1778.6 451.004 1774.03 449.158 1771.05 445.466C1768.07 441.756 1767.15 436.654 1768.29 430.16ZM1776.96 429.882C1776.15 434.502 1776.61 438.008 1778.36 440.401C1780.1 442.776 1782.64 443.964 1785.98 443.964C1789.31 443.964 1792.25 442.785 1794.8 440.429C1797.36 438.054 1799.06 434.502 1799.9 429.771C1800.72 425.095 1800.29 421.608 1798.61 419.307C1796.94 417.006 1794.38 415.856 1790.93 415.856C1787.49 415.856 1784.5 417.025 1781.98 419.363C1779.46 421.682 1777.79 425.188 1776.96 429.882ZM1818.62 409.511H1826.98L1823.08 431.607C1822.47 435.114 1822.17 437.387 1822.19 438.426C1822.26 440.095 1822.87 441.44 1824.02 442.461C1825.2 443.463 1826.96 443.964 1829.3 443.964C1831.67 443.964 1833.55 443.49 1834.92 442.544C1836.29 441.579 1837.23 440.401 1837.72 439.01C1838.21 437.618 1838.74 435.309 1839.31 432.081L1843.29 409.511H1851.65L1847.87 430.94C1847.01 435.837 1846.17 439.298 1845.36 441.32C1844.55 443.342 1843.42 445.049 1841.95 446.44C1840.49 447.832 1838.68 448.945 1836.5 449.78C1834.32 450.596 1831.59 451.004 1828.31 451.004C1824.36 451.004 1821.43 450.559 1819.53 449.668C1817.66 448.759 1816.25 447.591 1815.32 446.162C1814.39 444.715 1813.87 443.203 1813.77 441.626C1813.64 439.288 1813.97 435.837 1814.78 431.273L1818.62 409.511ZM1862.63 450.309L1868.6 416.413H1856.31L1857.53 409.511H1890.45L1889.23 416.413H1876.97L1870.99 450.309H1862.63ZM1888.68 450.309L1895.87 409.511H1926.59L1925.37 416.413H1903.02L1901.43 425.457H1922.23L1921.01 432.331H1900.22L1898.26 443.435H1921.4L1920.19 450.309H1888.68ZM1961.3 430.16C1960.89 432.442 1959.73 434.39 1957.81 436.004C1955.91 437.6 1953.81 438.398 1951.51 438.398C1949.19 438.398 1947.36 437.591 1946 435.977C1944.67 434.362 1944.2 432.424 1944.6 430.16C1945 427.897 1946.15 425.967 1948.05 424.372C1949.97 422.758 1952.09 421.951 1954.41 421.951C1956.71 421.951 1958.53 422.749 1959.86 424.344C1961.22 425.94 1961.7 427.878 1961.3 430.16ZM1989.11 450.309L1995.09 416.413H1982.8L1984.01 409.511H2016.93L2015.72 416.413H2003.45L1997.48 450.309H1989.11ZM2015.19 450.309L2022.39 409.511H2039.99C2044.42 409.511 2047.57 409.882 2049.43 410.624C2051.32 411.348 2052.7 412.647 2053.58 414.52C2054.45 416.394 2054.68 418.537 2054.25 420.949C2053.71 424.01 2052.35 426.543 2050.17 428.546C2047.99 430.531 2045.04 431.784 2041.31 432.303C2042.94 433.342 2044.23 434.483 2045.18 435.726C2046.14 436.969 2047.35 439.177 2048.78 442.349L2052.44 450.309H2042.43L2037.95 441.431C2036.36 438.259 2035.25 436.264 2034.6 435.448C2033.96 434.613 2033.22 434.047 2032.38 433.75C2031.55 433.435 2030.18 433.277 2028.26 433.277H2026.56L2023.56 450.309H2015.19ZM2027.71 426.765H2033.9C2037.91 426.765 2040.45 426.598 2041.5 426.264C2042.56 425.93 2043.44 425.355 2044.15 424.539C2044.86 423.723 2045.32 422.702 2045.54 421.478C2045.78 420.105 2045.6 419.001 2044.99 418.166C2044.41 417.313 2043.46 416.775 2042.14 416.552C2041.48 416.459 2039.45 416.413 2036.06 416.413H2029.53L2027.71 426.765ZM2064.12 409.511H2072.49L2068.59 431.607C2067.97 435.114 2067.68 437.387 2067.7 438.426C2067.76 440.095 2068.38 441.44 2069.53 442.461C2070.71 443.463 2072.47 443.964 2074.81 443.964C2077.18 443.964 2079.05 443.49 2080.43 442.544C2081.8 441.579 2082.73 440.401 2083.23 439.01C2083.72 437.618 2084.25 435.309 2084.81 432.081L2088.79 409.511H2097.16L2093.38 430.94C2092.52 435.837 2091.68 439.298 2090.87 441.32C2090.06 443.342 2088.92 445.049 2087.45 446.44C2086 447.832 2084.19 448.945 2082 449.78C2079.83 450.596 2077.1 451.004 2073.82 451.004C2069.86 451.004 2066.94 450.559 2065.04 449.668C2063.17 448.759 2061.76 447.591 2060.83 446.162C2059.9 444.715 2059.38 443.203 2059.28 441.626C2059.15 439.288 2059.48 435.837 2060.29 431.273L2064.12 409.511ZM2099.03 437.034L2107.31 436.255C2107.32 438.945 2107.96 440.921 2109.23 442.182C2110.51 443.444 2112.43 444.075 2114.97 444.075C2117.66 444.075 2119.79 443.518 2121.34 442.405C2122.92 441.273 2123.84 439.956 2124.1 438.453C2124.27 437.489 2124.12 436.672 2123.66 436.004C2123.21 435.318 2122.32 434.724 2120.97 434.223C2120.05 433.889 2117.93 433.296 2114.59 432.442C2110.3 431.348 2107.39 430.003 2105.86 428.407C2103.72 426.162 2102.93 423.426 2103.5 420.198C2103.86 418.12 2104.8 416.181 2106.3 414.381C2107.83 412.563 2109.8 411.181 2112.21 410.235C2114.63 409.289 2117.44 408.815 2120.62 408.815C2125.82 408.815 2129.53 409.938 2131.76 412.183C2134 414.428 2134.85 417.424 2134.33 421.172L2125.9 421.533C2125.91 419.437 2125.4 417.934 2124.37 417.025C2123.37 416.097 2121.69 415.634 2119.34 415.634C2116.91 415.634 2114.92 416.125 2113.37 417.108C2112.37 417.739 2111.78 418.583 2111.59 419.641C2111.42 420.606 2111.69 421.431 2112.4 422.118C2113.3 422.99 2115.7 423.899 2119.6 424.845C2123.51 425.791 2126.34 426.774 2128.1 427.795C2129.88 428.797 2131.16 430.179 2131.95 431.941C2132.75 433.685 2132.92 435.847 2132.47 438.426C2132.06 440.763 2131.01 442.952 2129.33 444.993C2127.65 447.034 2125.52 448.555 2122.93 449.557C2120.35 450.54 2117.26 451.032 2113.66 451.032C2108.42 451.032 2104.61 449.845 2102.22 447.47C2099.84 445.077 2098.77 441.598 2099.03 437.034ZM2146.74 450.309L2152.71 416.413H2140.42L2141.64 409.511H2174.56L2173.34 416.413H2161.08L2155.1 450.309H2146.74ZM2206.81 430.16C2206.4 432.442 2205.24 434.39 2203.32 436.004C2201.41 437.6 2199.31 438.398 2197.02 438.398C2194.7 438.398 2192.86 437.591 2191.51 435.977C2190.17 434.362 2189.71 432.424 2190.1 430.16C2190.5 427.897 2191.65 425.967 2193.56 424.372C2195.48 422.758 2197.6 421.951 2199.92 421.951C2202.21 421.951 2204.03 422.749 2205.37 424.344C2206.73 425.94 2207.21 427.878 2206.81 430.16ZM2225.29 450.309L2232.49 409.511H2263.2L2261.99 416.413H2239.64L2238.04 425.457H2258.84L2257.63 432.331H2236.83L2234.87 443.435H2258.01L2256.8 450.309H2225.29ZM2259.68 450.309L2277.6 429.019L2268.21 409.511H2277.98L2283.98 422.619L2294.43 409.511H2304.12L2287.74 429.325L2298.2 450.309H2288.11L2281.42 436.199L2269.72 450.309H2259.68ZM2302.5 450.309L2309.69 409.511H2340.41L2339.19 416.413H2316.84L2315.24 425.457H2336.04L2334.83 432.331H2314.03L2312.07 443.435H2335.22L2334 450.309H2302.5ZM2370.25 435.309L2377.91 437.841C2375.88 442.294 2373.23 445.605 2369.94 447.776C2366.68 449.928 2362.83 451.004 2358.38 451.004C2352.88 451.004 2348.68 449.158 2345.79 445.466C2342.91 441.756 2342.03 436.691 2343.16 430.272C2344.36 423.481 2347.07 418.212 2351.29 414.465C2355.51 410.699 2360.53 408.815 2366.33 408.815C2371.4 408.815 2375.25 410.29 2377.9 413.24C2379.47 414.984 2380.45 417.489 2380.81 420.754L2372.19 422.702C2372.07 420.587 2371.34 418.917 2369.99 417.693C2368.66 416.468 2366.89 415.856 2364.66 415.856C2361.59 415.856 2358.91 416.942 2356.6 419.112C2354.32 421.283 2352.74 424.799 2351.89 429.659C2350.98 434.817 2351.27 438.49 2352.77 440.68C2354.27 442.869 2356.52 443.964 2359.54 443.964C2361.76 443.964 2363.8 443.268 2365.64 441.876C2367.49 440.485 2369.02 438.296 2370.25 435.309ZM2390.06 409.511H2398.42L2394.52 431.607C2393.91 435.114 2393.61 437.387 2393.63 438.426C2393.7 440.095 2394.31 441.44 2395.46 442.461C2396.64 443.463 2398.4 443.964 2400.74 443.964C2403.11 443.964 2404.99 443.49 2406.36 442.544C2407.73 441.579 2408.67 440.401 2409.16 439.01C2409.65 437.618 2410.18 435.309 2410.75 432.081L2414.73 409.511H2423.09L2419.31 430.94C2418.45 435.837 2417.61 439.298 2416.8 441.32C2415.99 443.342 2414.86 445.049 2413.39 446.44C2411.93 447.832 2410.12 448.945 2407.94 449.78C2405.76 450.596 2403.03 451.004 2399.75 451.004C2395.8 451.004 2392.87 450.559 2390.97 449.668C2389.1 448.759 2387.69 447.591 2386.76 446.162C2385.83 444.715 2385.31 443.203 2385.21 441.626C2385.08 439.288 2385.41 435.837 2386.22 431.273L2390.06 409.511ZM2434.07 450.309L2440.04 416.413H2427.75L2428.97 409.511H2461.89L2460.67 416.413H2448.41L2442.43 450.309H2434.07ZM2460.12 450.309L2467.31 409.511H2498.03L2496.81 416.413H2474.46L2472.87 425.457H2493.67L2492.45 432.331H2471.66L2469.7 443.435H2492.84L2491.63 450.309H2460.12Z" fill="white"/>
</svg>
